# xmcd
#
# Track frame offsets:
#	150
#	16484
#	36301
#	58162
#	73146
#	90476
#	104370
#	121873
#	143395
#	159058
#	180638
#	198416
#	217738
#	233316
#	254630
#	267764
#
# Disc length: 3820 seconds
#
# Revision: 0
# Processed by: cddbd v1.5.1PL0 Copyright (c) Steve Scherf et al.
# Submitted via: dBpowerAMP V4.0
#
DISCID=d00eea10
DTITLE=Various Artist - Colorado Blues Society - Compilation 2004
DYEAR=2004
DGENRE=Blues
TTITLE0=All I Got Left Is The Blues - The Alleygators
TTITLE1=Sally Mae - Willie Houston
TTITLE2=Love Is A Bed For The Blues - Tempa and The Tantrums
TTITLE3=Black Hanna - Dan Treanor and Rex Peoples
TTITLE4=What A Real Man Should Do - Tommy Thomas
TTITLE5=Angeline - Bob Pellegrino
TTITLE6=Running Out Of Time - Metro Blues
TTITLE7=Moaning Blues - Hazel Miller
TTITLE8=Biscuits and Blue Sky - John-Alex Mason
TTITLE9=When The Moon Comes Out To Play - John Davis
TTITLE10=Huzzy Shuffle - Little Mary and Her Hometown Boggie Kings
TTITLE11=Teardrops On My Pillow - The Randall Dubis Band
TTITLE12=Watch Out Girl - The Teresa Lynne Band
TTITLE13=Baby Don't Do That - J.D.Kelly and Hubert"Blues"Lawhorn
TTITLE14=The Way It Goes - Kirk James
TTITLE15=Mother Of The Blues - Chris Nelson
EXTD=Album put out by the Colorado Blues Society highlighting local blues artists and bands.
EXTT0=
EXTT1=
EXTT2=
EXTT3=
EXTT4=
EXTT5=
EXTT6=
EXTT7=
EXTT8=
EXTT9=
EXTT10=
EXTT11=
EXTT12=
EXTT13=
EXTT14=
EXTT15=
PLAYORDER=
